<?xml version="1.0" encoding="UTF-8"?>
<!DOCTYPE svg PUBLIC "-//W3C//DTD SVG 1.1//EN" "http://www.w3.org/Graphics/SVG/1.1/DTD/svg11.dtd">
<svg xmlns="http://www.w3.org/2000/svg" version="1.1" width="512px" height="512px" style="shape-rendering:geometricPrecision; text-rendering:geometricPrecision; image-rendering:optimizeQuality; fill-rule:evenodd; clip-rule:evenodd" xmlns:xlink="http://www.w3.org/1999/xlink">
<g><path style="opacity:0.992" fill="#000000" d="M 195.5,36.5 C 236.561,36.017 277.561,36.517 318.5,38C 323.05,40.883 326.55,44.7163 329,49.5C 329.5,63.8295 329.667,78.1628 329.5,92.5C 366.502,92.3333 403.502,92.5 440.5,93C 444.084,94.6638 445.751,97.4971 445.5,101.5C 445.751,105.503 444.084,108.336 440.5,110C 317.167,110.667 193.833,110.667 70.5,110C 66.9158,108.336 65.2492,105.503 65.5,101.5C 65.2492,97.4971 66.9158,94.6638 70.5,93C 107.498,92.5 144.498,92.3333 181.5,92.5C 181.333,78.1628 181.5,63.8295 182,49.5C 184.773,43.2276 189.273,38.8943 195.5,36.5 Z M 202.5,48.5 C 239.215,48.0255 275.882,48.5255 312.5,50C 315.094,51.339 316.594,53.5056 317,56.5C 317.5,68.4954 317.667,80.4954 317.5,92.5C 276.167,92.5 234.833,92.5 193.5,92.5C 193.333,80.4954 193.5,68.4954 194,56.5C 194.9,51.6544 197.734,48.9877 202.5,48.5 Z"/></g>
<g><path style="opacity:0.996" fill="#000000" d="M 70.5,146.5 C 193.834,146.333 317.167,146.5 440.5,147C 444.084,148.664 445.751,151.497 445.5,155.5C 445.751,159.503 444.084,162.336 440.5,164C 317.167,164.667 193.833,164.667 70.5,164C 66.9158,162.336 65.2492,159.503 65.5,155.5C 65.3769,151.405 67.0435,148.405 70.5,146.5 Z"/></g>
<g><path style="opacity:0.989" fill="#000000" d="M 93.5,176.5 C 201.5,176.5 309.5,176.5 417.5,176.5C 403.955,262.813 390.455,349.146 377,435.5C 374.479,456.02 363.312,469.186 343.5,475C 284.833,475.667 226.167,475.667 167.5,475C 150.233,470.067 139.4,458.9 135,441.5C 121.164,353.154 107.331,264.82 93.5,176.5 Z M 188.5,242.5 C 192.499,242.074 194.999,243.741 196,247.5C 199.919,311.545 204.086,375.545 208.5,439.5C 206.826,445.693 203.326,447.027 198,443.5C 192.837,377.566 188.837,311.566 186,245.5C 186.698,244.309 187.531,243.309 188.5,242.5 Z M 253.5,242.5 C 257.917,242.082 260.417,244.082 261,248.5C 261.667,312.5 261.667,376.5 261,440.5C 259.923,445.115 257.09,446.615 252.5,445C 251.107,443.829 250.273,442.329 250,440.5C 249.333,376.5 249.333,312.5 250,248.5C 250.424,245.975 251.59,243.975 253.5,242.5 Z M 318.5,242.5 C 320.827,242.247 322.827,242.914 324.5,244.5C 325.125,247.612 325.459,250.779 325.5,254C 321.81,317.213 317.643,380.379 313,443.5C 307.674,447.027 304.174,445.693 302.5,439.5C 306.914,375.545 311.081,311.545 315,247.5C 315.257,245.093 316.424,243.427 318.5,242.5 Z"/></g>
</svg>
