<?xml version="1.0" encoding="UTF-8"?>
<!DOCTYPE svg PUBLIC "-//W3C//DTD SVG 1.1//EN" "http://www.w3.org/Graphics/SVG/1.1/DTD/svg11.dtd">
<svg xmlns="http://www.w3.org/2000/svg" version="1.1" width="512px" height="512px" style="shape-rendering:geometricPrecision; text-rendering:geometricPrecision; image-rendering:optimizeQuality; fill-rule:evenodd; clip-rule:evenodd" xmlns:xlink="http://www.w3.org/1999/xlink">
<g><path style="opacity:0.991" fill="#000000" d="M 78.5,-0.5 C 133.833,-0.5 189.167,-0.5 244.5,-0.5C 244.333,23.5023 244.5,47.5023 245,71.5C 249.931,98.097 265.764,113.597 292.5,118C 316.498,118.5 340.498,118.667 364.5,118.5C 364.674,191.502 364.84,264.502 365,337.5C 334.833,367.667 304.667,397.833 274.5,428C 208.837,429.23 143.17,429.563 77.5,429C 58.5592,425.059 47.3925,413.559 44,394.5C 43.2067,279.33 42.3734,164.163 41.5,49C 39.9758,21.8013 52.3092,5.30126 78.5,-0.5 Z M 102.5,184.5 C 169.834,184.333 237.167,184.5 304.5,185C 308.53,187.287 309.364,190.454 307,194.5C 305.829,195.893 304.329,196.727 302.5,197C 236.5,197.667 170.5,197.667 104.5,197C 98.6911,193.647 98.0244,189.48 102.5,184.5 Z M 103.5,243.5 C 125.503,243.333 147.503,243.5 169.5,244C 174.994,248.509 174.661,252.509 168.5,256C 147.167,256.667 125.833,256.667 104.5,256C 98.1809,252.255 97.8476,248.088 103.5,243.5 Z M 194.5,243.5 C 204.172,243.334 213.839,243.5 223.5,244C 227.911,248.868 227.244,252.868 221.5,256C 212.833,256.667 204.167,256.667 195.5,256C 189.181,252.255 188.848,248.088 194.5,243.5 Z"/></g>
<g><path style="opacity:0.959" fill="#000000" d="M 257.5,8.5 C 289.839,40.5061 322.173,72.5061 354.5,104.5C 333.841,105.666 313.175,105.833 292.5,105C 273.45,101.617 261.95,90.4499 258,71.5C 257.5,50.5026 257.333,29.5026 257.5,8.5 Z"/></g>
<g><path style="opacity:0.955" fill="#000000" d="M 424.5,295.5 C 440.581,310.079 456.248,325.245 471.5,341C 464.652,348.015 457.652,354.848 450.5,361.5C 435.014,346.514 419.681,331.347 404.5,316C 411.369,309.298 418.036,302.465 424.5,295.5 Z"/></g>
<g><path style="opacity:0.974" fill="#000000" d="M 394.5,325.5 C 410.081,339.579 425.248,354.245 440,369.5C 440.667,370.5 440.667,371.5 440,372.5C 402.32,410.347 364.486,448.014 326.5,485.5C 311.014,470.514 295.681,455.347 280.5,440C 318.701,401.965 356.701,363.799 394.5,325.5 Z"/></g>
<g><path style="opacity:0.935" fill="#000000" d="M 258.5,511.5 C 257.167,511.5 255.833,511.5 254.5,511.5C 260.767,491.699 267.434,472.032 274.5,452.5C 287.986,465.486 301.319,478.653 314.5,492C 295.698,498.433 277.031,504.933 258.5,511.5 Z"/></g>
</svg>
